<?xml version="1.0" encoding="utf-8"?>
<!-- Generator: Adobe Illustrator 14.0.0, SVG Export Plug-In  -->
<!DOCTYPE svg PUBLIC "-//W3C//DTD SVG 1.1//EN" "http://www.w3.org/Graphics/SVG/1.1/DTD/svg11.dtd" [
	<!ENTITY ns_flows "http://ns.adobe.com/Flows/1.0/">
]>
<svg version="1.1"
	 xmlns="http://www.w3.org/2000/svg" xmlns:xlink="http://www.w3.org/1999/xlink" xmlns:a="http://ns.adobe.com/AdobeSVGViewerExtensions/3.0/"
	 x="0px" y="0px" width="100px" height="100px" viewBox="4 2.167 100 100" enable-background="new 4 2.167 100 100"
	 xml:space="preserve">
<defs>
</defs>
<rect display="none" fill="#28A3CE" width="122.5" height="116.333"/>
<path display="none" d="M68.217,77.042H6.745c-2.061,0-2.061-2.055-2.061-2.055V73.61h29.538v0.686c0,0.382,0.306,0.691,0.686,0.691
	h8.241c0.381,0,0.69-0.312,0.69-0.691V73.61h22.408l0.028,1.172C66.697,76.342,67.652,76.812,68.217,77.042z M12.931,69.493V41.326
	v-0.69c0-1.137,0.92-2.056,2.057-2.056H63.07c1.141,0,2.06,0.919,2.06,2.056v0.69v28.167c0,1.135-0.919,2.057-2.06,2.057h-0.688
	H15.678h-0.689C13.851,71.55,12.931,70.628,12.931,69.493z M15.676,68.801h46.707V41.326H15.676V68.801z"/>
<polygon points="62.697,91.37 62.697,90.924 61.968,90.924 61.968,72.985 59.65,72.985 59.65,91.37 "/>
<path d="M99.904,21.201H7.934C5.761,21.201,4,22.96,4,25.135v1.318v53.878c0,2.172,1.761,3.934,3.936,3.934h1.318h41.723v7.979
	h-6.015v4.78h13.329c-1.023-0.617-1.715-1.729-1.715-3.008V79.688c-0.953-0.129-1.689-0.938-1.689-1.926
	c0-0.992,0.736-1.794,1.689-1.921v-2.856H9.251V28h89.337v34.604h1.812c1.566,0,2.832,1.166,2.832,2.604v17.207
	c0.381-0.605,0.608-1.316,0.608-2.085V26.453v-1.318C103.842,22.959,102.086,21.201,99.904,21.201z"/>
<path d="M86.762,49.463H62.439c-2.015,0-3.651,1.668-3.651,3.726v40.115c0,2.053,1.637,3.721,3.651,3.721h21.947
	c-0.679-0.646-1.093-1.56-1.093-2.573v-3.938H61.968V55.765H87.23l-0.047,6.088h3.225v-8.664
	C90.408,51.13,88.77,49.463,86.762,49.463z M73.369,92.672c0.722,0,1.322,0.584,1.322,1.317c0,0.729-0.6,1.322-1.322,1.322
	c-0.73,0-1.321-0.595-1.321-1.322C72.048,93.256,72.639,92.672,73.369,92.672z"/>
<path d="M99.779,63.575H87.218c-1.418,0-2.577,1.197-2.577,2.675v28.104c0,1.479,1.159,2.672,2.577,2.672h12.562
	c1.426,0,2.576-1.193,2.576-2.672V66.25C102.355,64.772,101.204,63.575,99.779,63.575z M89.001,65.584h8.792v1.042h-8.792V65.584z
	 M93.493,95.717c-0.562,0-1.011-0.45-1.011-1.017c0-0.555,0.447-1.006,1.011-1.006c0.55,0,1.004,0.447,1.004,1.006
	C94.497,95.269,94.048,95.717,93.493,95.717z M100.361,92.425H86.632v-24.25h13.729V92.425z"/>
</svg>
